<?xml version="1.0" encoding="UTF-8"?>
<svg version="1.1" xmlns="http://www.w3.org/2000/svg" width="500" height="500">
<path d="M0 0 C165 0 330 0 500 0 C500 165 500 330 500 500 C335 500 170 500 0 500 C0 335 0 170 0 0 Z " fill="#FEFEFD" transform="translate(0,0)"/>
<path d="M0 0 C26.07 0 52.14 0 79 0 C79 1.98 79 3.96 79 6 C78.01 6.03738281 77.02 6.07476562 76 6.11328125 C63.72621619 6.37094472 63.72621619 6.37094472 53.5625 12.5 C51.19362457 16.29020069 50.8726675 19.11116337 50.85955811 23.49020386 C50.85384796 24.631427 50.84813782 25.77265015 50.84225464 26.94845581 C50.84113678 28.2015152 50.84001892 29.45457458 50.83886719 30.74560547 C50.83390228 32.06449768 50.82893738 33.38338989 50.82382202 34.74224854 C50.81070499 38.36212537 50.80425455 41.98198366 50.79981136 45.60188055 C50.7968798 47.86348692 50.79277485 50.12508823 50.78830719 52.38669205 C50.77463472 59.46294534 50.76496657 66.53918706 50.7611053 73.61545265 C50.7566236 81.78375859 50.73906955 89.95189727 50.7101047 98.12015235 C50.68849113 104.43446727 50.67840121 110.74873511 50.67706418 117.06308663 C50.67601601 120.83425649 50.67010562 124.60526908 50.65224457 128.37639999 C50.63576914 131.92393213 50.63360563 135.47118866 50.64238358 139.01874542 C50.64352136 140.93934633 50.62980027 142.85993808 50.6156311 144.78048706 C50.62398483 146.50078125 50.62398483 146.50078125 50.63250732 148.25582886 C50.63104076 149.2502342 50.6295742 150.24463955 50.6280632 151.26917839 C51.06674798 154.4900747 52.12067472 156.3715657 54 159 C57.29440376 161.38089795 60.5337552 161.30546605 64.515625 161.4140625 C66.39121094 161.47207031 66.39121094 161.47207031 68.3046875 161.53125 C69.60664063 161.5621875 70.90859375 161.593125 72.25 161.625 C74.22613281 161.68300781 74.22613281 161.68300781 76.2421875 161.7421875 C79.49465161 161.83646182 82.74710996 161.9220675 86 162 C85.98259766 161.33758301 85.96519531 160.67516602 85.94726562 159.99267578 C85.81282953 151.23352373 85.81282953 151.23352373 87.5 146.875 C87.7784375 146.12992188 88.056875 145.38484375 88.34375 144.6171875 C88.5603125 144.08351563 88.776875 143.54984375 89 143 C90.17944622 146.53833865 89.44559558 148.42569398 88.4765625 151.93359375 C87.85185747 154.64235573 87.93409423 157.23195779 88 160 C87.67 160.66 87.34 161.32 87 162 C91.14781922 161.77796463 95.29237017 161.51728403 99.4375 161.25 C100.60216797 161.188125 101.76683594 161.12625 102.96679688 161.0625 C114.36614116 160.2918401 123.87699945 156.83061147 131.65625 148.15234375 C135.33657586 143.4298848 138.22958099 138.2956682 141 133 C143.9348199 135.42441644 144.58262254 137.24528181 145 141 C144.41088867 143.65966797 144.41088867 143.65966797 143.41796875 146.4921875 C143.06283203 147.52730469 142.70769531 148.56242188 142.34179688 149.62890625 C141.96087891 150.70011719 141.57996094 151.77132812 141.1875 152.875 C140.45059746 154.99697066 139.71488917 157.11935649 138.98046875 159.2421875 C138.63290527 160.23702148 138.2853418 161.23185547 137.92724609 162.25683594 C137.1492305 164.5585166 136.44450541 166.85351931 135.80078125 169.1953125 C135 172 135 172 134 173 C132.27907347 173.09624593 130.55416618 173.12187598 128.83055115 173.12025452 C127.71009399 173.12162918 126.58963684 173.12300385 125.43522644 173.12442017 C123.57514702 173.11902725 123.57514702 173.11902725 121.67749023 173.11352539 C119.73143387 173.11374443 119.73143387 173.11374443 117.74606323 173.1139679 C114.17804071 173.11425586 110.61005152 173.10835932 107.04203677 173.10139394 C103.3170938 173.09516021 99.59215014 173.09455659 95.86720276 173.09336853 C88.80882637 173.09025527 81.7504654 173.08204195 74.69209582 173.07201904 C66.65837029 173.06085774 58.62464404 173.05534741 50.5909127 173.05032361 C34.06059943 173.03985934 17.53030168 173.02226 1 173 C1 171.68 1 170.36 1 169 C2.02480469 168.80664062 3.04960938 168.61328125 4.10546875 168.4140625 C5.46619601 168.15130137 6.82687033 167.88826602 8.1875 167.625 C8.86103516 167.49867188 9.53457031 167.37234375 10.22851562 167.2421875 C14.00061738 166.50616765 17.55448747 165.73241658 21 164 C22.32481546 161.60470331 22.32481546 161.60470331 23 159 C23.33 158.01 23.66 157.02 24 156 C24.09043671 154.23650694 24.12195732 152.46974336 24.12025452 150.70393372 C24.12162918 149.6059697 24.12300385 148.50800568 24.12442017 147.37677002 C24.12082489 146.17195984 24.11722961 144.96714966 24.11352539 143.72583008 C24.11367142 142.45742783 24.11381744 141.18902557 24.1139679 139.88218689 C24.11425511 136.40312252 24.10837057 132.92409254 24.10139394 129.44503617 C24.09514785 125.80952519 24.0945556 122.17401344 24.09336853 118.53849792 C24.09025893 111.65372618 24.08205052 104.76897028 24.07201904 97.88420552 C24.06084641 90.04631871 24.05534455 82.20843114 24.05032361 74.37053835 C24.03986761 58.24701628 24.02227533 42.12351016 24 26 C23.34 26.33 22.68 26.66 22 27 C22.15855469 26.43152344 22.31710938 25.86304688 22.48046875 25.27734375 C23.63951264 20.1967228 23.95829808 15.60857178 21.25 11.0625 C18.10716507 8.18156798 16.29061729 7 12 7 C12.02320312 7.74765625 12.04640625 8.4953125 12.0703125 9.265625 C12.09738281 10.74289063 12.09738281 10.74289063 12.125 12.25 C12.14820312 13.22453125 12.17140625 14.1990625 12.1953125 15.203125 C12 18 12 18 10 22 C10 16.39 10 10.78 10 5 C9.01 5 8.02 5 7 5 C7 6.98 7 8.96 7 11 C6.67 11 6.34 11 6 11 C6 9.02 6 7.04 6 5 C4.02 5 2.04 5 0 5 C0 3.35 0 1.7 0 0 Z " fill="#060605" transform="translate(107,137)"/>
<path d="M0 0 C3.10899728 1.39416919 5.24052218 1.54245632 8.61328125 1.171875 C11.66027529 -1.79048032 13.24385095 -4.83395329 14.61328125 -8.828125 C16.26328125 -8.828125 17.91328125 -8.828125 19.61328125 -8.828125 C22.82736928 27.06954237 22.82736928 27.06954237 22.61328125 45.171875 C20.76171875 45.0390625 20.76171875 45.0390625 18.61328125 44.171875 C17.33984375 41.6171875 17.33984375 41.6171875 16.23828125 38.296875 C11.06653361 23.92916271 4.34168613 13.41081597 -9.06640625 5.6796875 C-17.48968461 1.85452815 -25.10500756 0.66974063 -34.32421875 0.734375 C-35.33162109 0.71439453 -36.33902344 0.69441406 -37.37695312 0.67382812 C-50.04202685 0.68197287 -61.86362703 5.77919083 -71.13671875 14.421875 C-87.75110755 32.35918937 -90.25200758 58.49299252 -89.734375 81.7421875 C-88.98322165 99.83986795 -84.61798543 119.01136375 -71.38671875 132.171875 C-56.19455753 145.06372562 -39.59708494 147.30598096 -20.38671875 146.171875 C-2.98997455 144.10083402 8.74528065 132.58135818 19.30078125 119.484375 C20.41207967 118.05238125 21.51919981 116.61706567 22.61328125 115.171875 C23.93328125 115.501875 25.25328125 115.831875 26.61328125 116.171875 C21.11580105 131.17707458 7.64473841 144.41959588 -6.51171875 151.359375 C-26.856766 160.10211996 -49.40269902 161.47679705 -70.28759766 153.44042969 C-89.49957025 145.45844996 -103.46320327 129.97288241 -111.63671875 111.109375 C-116.57375276 98.54793839 -117.8207608 85.5947816 -117.36474609 72.18847656 C-117.30553455 70.1838036 -117.33827954 68.17683718 -117.38671875 66.171875 C-118.04671875 65.511875 -118.70671875 64.851875 -119.38671875 64.171875 C-117.90171875 63.181875 -117.90171875 63.181875 -116.38671875 62.171875 C-115.72753572 59.89390821 -115.72753572 59.89390821 -115.44921875 57.234375 C-112.30344534 37.48304356 -100.47526663 18.99627658 -84.94921875 6.609375 C-60.46809254 -11.04052786 -26.72563184 -15.62540559 0 0 Z " fill="#050505" transform="translate(367.38671875,151.828125)"/>
<path d="M0 0 C6.59520928 1.09920155 7.50768512 1.71663 12 6 C13.18950588 8.37901175 13.10114187 9.85517878 13.0625 12.5 C13.05347656 13.2940625 13.04445312 14.088125 13.03515625 14.90625 C13.02355469 15.5971875 13.01195312 16.288125 13 17 C13 17.66 13 18.32 13 19 C13.33 19 13.66 19 14 19 C14.11582029 26.51024979 14.20467737 34.02040709 14.25906086 41.53134632 C14.28516211 45.01902101 14.32056666 48.50608503 14.37719727 51.9934082 C14.44188862 56.00217567 14.46617566 60.0103012 14.48828125 64.01953125 C14.51408768 65.27272659 14.5398941 66.52592194 14.56648254 67.8170929 C14.5668602 68.97806992 14.56723785 70.13904694 14.56762695 71.33520508 C14.57873001 72.35890701 14.58983307 73.38260895 14.60127258 74.43733215 C14 77 14 77 11.59074402 78.67167664 C10.73579849 79.11002335 9.88085297 79.54837006 9 80 C6.91117288 82.91040838 6.91117288 82.91040838 5.1875 86.1875 C4.58292969 87.27417969 3.97835937 88.36085938 3.35546875 89.48046875 C2.90816406 90.31191406 2.46085937 91.14335937 2 92 C2.94875 91.505 3.8975 91.01 4.875 90.5 C8 89 8 89 10 89 C9.50945003 93.25143311 6.93054126 96.08513008 4 99 C-1.06925302 102.72434916 -1.06925302 102.72434916 -4.13671875 103.6328125 C-6.40778113 104.96861196 -6.40778113 104.96861196 -6.609375 108.4765625 C-6.67581781 109.858573 -6.7219252 111.2416781 -6.75 112.625 C-6.77964844 113.33140625 -6.80929688 114.0378125 -6.83984375 114.765625 C-6.91055357 116.50980047 -6.95754035 118.25490827 -7 120 C-9.71920804 117.28079196 -10.22407101 114.25254564 -11.125 110.625 C-11.30313232 109.90981201 -11.48126465 109.19462402 -11.66479492 108.45776367 C-13.27435529 101.56503096 -14.00110677 94.61115845 -12.484375 87.625 C-11.86685482 84.27843904 -11.90572012 81.08794739 -11.9375 77.6875 C-11.94652344 76.43324219 -11.95554687 75.17898437 -11.96484375 73.88671875 C-11.97644531 72.93410156 -11.98804687 71.98148437 -12 71 C-11.34 71.66 -10.68 72.32 -10 73 C-8.8665624 70.19065066 -7.74318062 67.37791905 -6.625 64.5625 C-6.30789062 63.77939453 -5.99078125 62.99628906 -5.6640625 62.18945312 C-0.94067984 50.23339078 0.80765269 38.84262005 -2.953125 26.30078125 C-4.49362481 22.91513056 -6.81286312 21.78479665 -10 20 C-12.84705432 16.8193065 -15 14.34816843 -15 10 C-11.35446828 11.2808625 -9.83328987 12.16671013 -7 15 C-6.67 12.03 -6.34 9.06 -6 6 C-5.67 6 -5.34 6 -5 6 C-4.87625 7.093125 -4.7525 8.18625 -4.625 9.3125 C-4.24535199 13.07381802 -4.24535199 13.07381802 -2 16 C-1.34 16 -0.68 16 0 16 C0 10.72 0 5.44 0 0 Z " fill="#E4E4E4" transform="translate(118,143)"/>
<path d="M0 0 C6.59520928 1.09920155 7.50768512 1.71663 12 6 C15.38665681 12.77331362 12.04831336 21.23573457 10.0703125 27.9609375 C9 31 9 31 7 34 C6.67 32.02 6.34 30.04 6 28 C5.34 28 4.68 28 4 28 C4.33 31.3 4.66 34.6 5 38 C4.01 38.66 3.02 39.32 2 40 C1.49165941 41.99377142 1.49165941 41.99377142 1.4375 44.25 C1.13879757 48.10201678 0.39596243 51.37049769 -1 55 C-2.13098554 51.60704337 -1.70153417 49.45720079 -1 46 C-0.3906359 38.47669702 -0.83828956 30.94868452 -4 24 C-6.81420633 21.67939769 -6.81420633 21.67939769 -10 20 C-12.84705432 16.8193065 -15 14.34816843 -15 10 C-11.35446828 11.2808625 -9.83328987 12.16671013 -7 15 C-6.67 12.03 -6.34 9.06 -6 6 C-5.67 6 -5.34 6 -5 6 C-4.87625 7.093125 -4.7525 8.18625 -4.625 9.3125 C-4.24535199 13.07381802 -4.24535199 13.07381802 -2 16 C-1.34 16 -0.68 16 0 16 C0 10.72 0 5.44 0 0 Z " fill="#FAF9F5" transform="translate(118,143)"/>
<path d="M0 0 C0.33 0 0.66 0 1 0 C1 14.19 1 28.38 1 43 C0.01 43.495 0.01 43.495 -1 44 C-1.33 41.69 -1.66 39.38 -2 37 C-2.66 37 -3.32 37 -4 37 C-4 37.99 -4 38.98 -4 40 C-3.34 40 -2.68 40 -2 40 C-2.33 42.64 -2.66 45.28 -3 48 C-3.99 47.34 -4.98 46.68 -6 46 C-6.66 49.96 -7.32 53.92 -8 58 C-8.66 58 -9.32 58 -10 58 C-10 46.78 -10 35.56 -10 24 C-10.66 23.67 -11.32 23.34 -12 23 C-11.67 21.68 -11.34 20.36 -11 19 C-10.34 19 -9.68 19 -9 19 C-9 15.7 -9 12.4 -9 9 C-8.34 9 -7.68 9 -7 9 C-6.01 10.485 -6.01 10.485 -5 12 C-4.80664062 11.30132812 -4.61328125 10.60265625 -4.4140625 9.8828125 C-4.15367188 8.97273437 -3.89328125 8.06265625 -3.625 7.125 C-3.24214844 5.76761719 -3.24214844 5.76761719 -2.8515625 4.3828125 C-2 2 -2 2 0 0 Z " fill="#F6F3ED" transform="translate(131,162)"/>
<path d="M0 0 C3.729169 3.01885109 5.61568798 7.31509853 6.28417969 11.98535156 C6.40029653 14.04071887 6.41001519 16.06688499 6.375 18.125 C6.38660156 18.81464844 6.39820313 19.50429687 6.41015625 20.21484375 C6.383933 24.7864308 5.37581602 27.20234012 3 31 C1.40592126 39.97605412 2.00695361 48.21405763 3.91796875 57.07421875 C4 60 4 60 2.05078125 62.39453125 C1.37402344 62.92433594 0.69726562 63.45414062 0 64 C0.01160156 62.92621094 0.02320313 61.85242188 0.03515625 60.74609375 C0.04454315 59.30989759 0.05364238 57.87369952 0.0625 56.4375 C0.07087891 55.73302734 0.07925781 55.02855469 0.08789062 54.30273438 C0.10879208 49.76711858 -0.34723233 45.4974586 -1 41 C-0.7215625 39.39125 -0.7215625 39.39125 -0.4375 37.75 C0.35184925 34.79269037 0.35184925 34.79269037 -2 32 C-1.34 32 -0.68 32 0 32 C-0.99 29.69 -1.98 27.38 -3 25 C-3 26.65 -3 28.3 -3 30 C-5.58926331 27.41073669 -5.37398043 25.97294721 -5.625 22.375 C-5.69976562 21.37210938 -5.77453125 20.36921875 -5.8515625 19.3359375 C-5.90054688 18.56507813 -5.94953125 17.79421875 -6 17 C-3 18 -3 18 -2 20 C-1.13580777 17.40742331 -0.82419068 15.65962293 -0.68359375 12.98828125 C-0.64169922 12.23095703 -0.59980469 11.47363281 -0.55664062 10.69335938 C-0.51732422 9.90767578 -0.47800781 9.12199219 -0.4375 8.3125 C-0.37272461 7.11657227 -0.37272461 7.11657227 -0.30664062 5.89648438 C-0.20072632 3.93118553 -0.09987449 1.96561504 0 0 Z " fill="#535353" transform="translate(205,201)"/>
<path d="M0 0 C9.92391304 -0.35869565 9.92391304 -0.35869565 14.1875 1.0625 C16 3 16 3 16.375 6.5625 C16 10 16 10 15 12 C14.34 12 13.68 12 13 12 C13 12.99 13 13.98 13 15 C13.66 15 14.32 15 15 15 C15.33 16.32 15.66 17.64 16 19 C13.625 18.6875 13.625 18.6875 11 18 C10.34 17.01 9.68 16.02 9 15 C6.94074861 14.27617533 6.94074861 14.27617533 5 14 C5 15.65 5 17.3 5 19 C3.35 19 1.7 19 0 19 C0 12.73 0 6.46 0 0 Z " fill="#151515" transform="translate(299,346)"/>
<path d="M0 0 C4.95 0 9.9 0 15 0 C15.33 1.65 15.66 3.3 16 5 C12.7 5 9.4 5 6 5 C6 5.99 6 6.98 6 8 C8.64 8 11.28 8 14 8 C14 9.32 14 10.64 14 12 C11.36 12 8.72 12 6 12 C6 13.32 6 14.64 6 16 C8.97 16 11.94 16 15 16 C15 16.99 15 17.98 15 19 C10.05 19 5.1 19 0 19 C0 12.73 0 6.46 0 0 Z " fill="#2A2A2A" transform="translate(351,346)"/>
<path d="M0 0 C1.65 0 3.3 0 5 0 C5.33 4.62 5.66 9.24 6 14 C8.97 14.495 8.97 14.495 12 15 C12.33 10.05 12.66 5.1 13 0 C14.65 0.33 16.3 0.66 18 1 C18.10826289 3.4178712 18.18739789 5.83087556 18.25 8.25 C18.30027344 9.27287109 18.30027344 9.27287109 18.3515625 10.31640625 C18.41803128 13.73954847 18.25670262 15.6441297 16.23046875 18.453125 C13.49600677 20.34952946 11.26810301 20.56073 7.96875 20.39453125 C4.85458271 19.77046201 3.14153198 18.2713218 1 16 C-0.14077657 12.57767028 -0.09815117 9.91326783 -0.0625 6.3125 C-0.05347656 5.13300781 -0.04445312 3.95351563 -0.03515625 2.73828125 C-0.02355469 1.83464844 -0.01195312 0.93101562 0 0 Z " fill="#252525" transform="translate(145,346)"/>
<path d="M0 0 C0.66 0 1.32 0 2 0 C2.66 1.98 3.32 3.96 4 6 C4.33 6 4.66 6 5 6 C5.13501894 8.43934225 5.23403897 10.87124104 5.3125 13.3125 C5.35439453 14.00279297 5.39628906 14.69308594 5.43945312 15.40429688 C5.48828125 17.42578125 5.48828125 17.42578125 5 21 C2.65625 22.71875 2.65625 22.71875 0 24 C-1.62000999 25.99524696 -1.62000999 25.99524696 -2.8125 28.1875 C-3.23144531 28.90292969 -3.65039062 29.61835938 -4.08203125 30.35546875 C-4.38496094 30.89816406 -4.68789062 31.44085938 -5 32 C-9.45796545 23.10287908 -9.45796545 23.10287908 -8 18 C-8.99 17.67 -9.98 17.34 -11 17 C-11 15.35 -11 13.7 -11 12 C-8.5 14.25 -8.5 14.25 -6 17 C-6 18.32 -6 19.64 -6 21 C-5.34 21 -4.68 21 -4 21 C-4.04125 19.824375 -4.0825 18.64875 -4.125 17.4375 C-4.13983635 13.27590326 -3.31170778 9.93512333 -2 6 C-1.34 6.66 -0.68 7.32 0 8 C0.66 6.35 1.32 4.7 2 3 C1.34 3 0.68 3 0 3 C-0.33 3.66 -0.66 4.32 -1 5 C-0.67 3.35 -0.34 1.7 0 0 Z " fill="#C3C1BB" transform="translate(127,199)"/>
<path d="M0 0 C1.65 0 3.3 0 5 0 C6.34070318 2.60060504 7.67273354 5.20504916 9 7.8125 C9.3815625 8.55048828 9.763125 9.28847656 10.15625 10.04882812 C10.5171875 10.76103516 10.878125 11.47324219 11.25 12.20703125 C11.58515625 12.8616333 11.9203125 13.51623535 12.265625 14.19067383 C13 16 13 16 13 19 C11.35 19 9.7 19 8 19 C7.67 18.01 7.34 17.02 7 16 C4.03 15.67 1.06 15.34 -2 15 C-2.33 16.32 -2.66 17.64 -3 19 C-4.65 19 -6.3 19 -8 19 C-5.36 12.73 -2.72 6.46 0 0 Z " fill="#131313" transform="translate(276,346)"/>
<path d="M0 0 C3.89600061 0.25973337 5.64205355 0.98967531 8.75 3.25 C8.42 4.57 8.09 5.89 7.75 7.25 C7.21375 6.92 6.6775 6.59 6.125 6.25 C3.18720283 5.01303277 0.90845117 5.03943659 -2.25 5.25 C-3.65432936 6.42718985 -3.65432936 6.42718985 -3.375 9.75 C-3.65432936 13.07281015 -3.65432936 13.07281015 -2.25 14.25 C0.04581781 14.32188471 2.32517069 14.24646432 4.62109375 14.1875 C6.75 14.25 6.75 14.25 8.75 15.25 C8.375 17.1875 8.375 17.1875 7.75 19.25 C4.52140153 20.86429923 1.24006347 20.84570657 -2.25 20.25 C-5.27508145 18.51397895 -7.66790069 16.41419863 -9.25 13.25 C-9.625 9.9375 -9.625 9.9375 -9.25 6.25 C-6.8125 3.375 -6.8125 3.375 -4.25 1.25 C-3.25 0.25 -3.25 0.25 0 0 Z " fill="#222222" transform="translate(251.25,345.75)"/>
<path d="M0 0 C4.62 0 9.24 0 14 0 C14 0.99 14 1.98 14 3 C10.7 3 7.4 3 4 3 C4 4.32 4 5.64 4 7 C6.97 7 9.94 7 13 7 C13 8.32 13 9.64 13 11 C10.36 11 7.72 11 5 11 C5 11.99 5 12.98 5 14 C7.97 14 10.94 14 14 14 C14 15.32 14 16.64 14 18 C9.38 18 4.76 18 0 18 C0 12.06 0 6.12 0 0 Z " fill="#131313" transform="translate(202,347)"/>
<path d="M0 0 C2.3125 -0.25 2.3125 -0.25 5 0 C6.97610386 2.04424538 8 3.1176825 8 6 C8.66 6 9.32 6 10 6 C10.226875 5.195625 10.45375 4.39125 10.6875 3.5625 C11.120625 2.716875 11.55375 1.87125 12 1 C14.625 0.1875 14.625 0.1875 17 0 C15.66511872 3.59391114 14.03977277 6.75490696 12 10 C12.433125 10.56589844 12.86625 11.13179688 13.3125 11.71484375 C13.869375 12.44832031 14.42625 13.18179687 15 13.9375 C15.8353125 15.03384766 15.8353125 15.03384766 16.6875 16.15234375 C18 18 18 18 18 19 C15.8125 19.3125 15.8125 19.3125 13 19 C10.1875 16.5 10.1875 16.5 8 14 C7.608125 14.825 7.21625 15.65 6.8125 16.5 C6.214375 17.325 5.61625 18.15 5 19 C2.3125 19.3125 2.3125 19.3125 0 19 C1.06897504 16.69759223 2.03624312 14.95987369 3.75 13.0625 C4.1625 12.381875 4.575 11.70125 5 11 C4.09418025 7.37672098 2.22606761 4.93436185 0 2 C0 1.34 0 0.68 0 0 Z " fill="#121212" transform="translate(173,346)"/>
<path d="M0 0 C3.057952 1.73559438 5.63379989 3.38472619 8 6 C7.67 6.66 7.34 7.32 7 8 C7 13.3643541 8.2312742 19.05996848 12 23 C12 21.02 12 19.04 12 17 C14.50559358 19.50559358 14.27333855 20.47021115 14.4375 23.9375 C14.80517286 29.1053463 15.87593015 33.73990402 17.37890625 38.6875 C18 41 18 41 18 44 C15.4375 41.9375 15.4375 41.9375 13 39 C13.1875 35.1875 13.1875 35.1875 14 32 C13.34 32 12.68 32 12 32 C11.54625 31.071875 11.0925 30.14375 10.625 29.1875 C8.40233302 24.39937679 8.40233302 24.39937679 4 22 C3.67 22.66 3.34 23.32 3 24 C2.34 22.02 1.68 20.04 1 18 C2.65 18.33 4.3 18.66 6 19 C5.37879354 17.08210046 4.75288109 15.16572478 4.125 13.25 C3.77695313 12.18265625 3.42890625 11.1153125 3.0703125 10.015625 C2.1057745 7.08519352 2.1057745 7.08519352 0.8671875 4.796875 C0 3 0 3 0 0 Z " fill="#5B5B5B" transform="translate(84,165)"/>
<path d="M0 0 C1.65 0 3.3 0 5 0 C6 1 6 1 6.09765625 4.16015625 C6.08605469 5.44792969 6.07445312 6.73570312 6.0625 8.0625 C6.05347656 9.35285156 6.04445313 10.64320313 6.03515625 11.97265625 C6.02355469 12.97167969 6.01195312 13.97070312 6 15 C8.64 15 11.28 15 14 15 C14 16.32 14 17.64 14 19 C9.38 19 4.76 19 0 19 C0 12.73 0 6.46 0 0 Z " fill="#2D2D2D" transform="translate(377,346)"/>
<path d="M0 0 C0.99 0.33 1.98 0.66 3 1 C3.33 2.98 3.66 4.96 4 7 C4.66 7 5.32 7 6 7 C6 7.66 6 8.32 6 9 C6.66 9 7.32 9 8 9 C8.66 8.01 9.32 7.02 10 6 C10.18175781 6.59167969 10.36351562 7.18335938 10.55078125 7.79296875 C11.95667057 12.212508 13.37527181 16.12540125 16 20 C12.33237392 22.34728069 9.28301385 22.4430704 5 22 C1.5625 20 1.5625 20 -1 18 C1.39763185 15.60236815 2.33273498 15.65719414 5.625 15.375 C6.44226563 15.30023438 7.25953125 15.22546875 8.1015625 15.1484375 C8.72804687 15.09945312 9.35453125 15.05046875 10 15 C9.44570312 14.60167969 8.89140625 14.20335937 8.3203125 13.79296875 C7.23363281 12.99826172 7.23363281 12.99826172 6.125 12.1875 C5.40570313 11.66542969 4.68640625 11.14335937 3.9453125 10.60546875 C2 9 2 9 0 6 C-0.125 2.8125 -0.125 2.8125 0 0 Z " fill="#ACACAC" transform="translate(183,214)"/>
<path d="M0 0 C0.33 0 0.66 0 1 0 C1.103125 1.093125 1.20625 2.18625 1.3125 3.3125 C1.61225206 6.91798823 1.61225206 6.91798823 3.54296875 8.46875 C5 10 5 10 5.1875 11.91796875 C5.125625 12.66691406 5.06375 13.41585937 5 14.1875 C4.81724897 18.98822909 5.60546702 23.33537724 6.625 28 C7.96060102 34.3558239 8.37177995 39.83839178 6 46 C5.34 46.99 4.68 47.98 4 49 C4.165 47.741875 4.33 46.48375 4.5 45.1875 C5.48334538 35.94694564 5.94169743 26.66290965 2 18 C-0.81420633 15.67939769 -0.81420633 15.67939769 -4 14 C-6.84705432 10.8193065 -9 8.34816843 -9 4 C-5.35446828 5.2808625 -3.83328987 6.16671013 -1 9 C-0.67 6.03 -0.34 3.06 0 0 Z " fill="#606060" transform="translate(112,149)"/>
<path d="M0 0 C5.28 0 10.56 0 16 0 C16 1.32 16 2.64 16 4 C14.02 4 12.04 4 10 4 C10 8.95 10 13.9 10 19 C8.68 19 7.36 19 6 19 C6 14.05 6 9.1 6 4 C4.02 4 2.04 4 0 4 C0 2.68 0 1.36 0 0 Z " fill="#0E0E0E" transform="translate(325,346)"/>
<path d="M0 0 C1.65 0 3.3 0 5 0 C5 5.28 5 10.56 5 16 C7.97 16 10.94 16 14 16 C14 16.99 14 17.98 14 19 C9.38 19 4.76 19 0 19 C0 12.73 0 6.46 0 0 Z " fill="#1B1B1B" transform="translate(121,346)"/>
<path d="M0 0 C2.75610668 1.04541977 3.81529894 1.640319 5.1875 4.3125 C7.88518726 8.31251903 11.74477065 9.90360818 16 12 C15.01 12.495 15.01 12.495 14 13 C13.01 12.67 12.02 12.34 11 12 C10.54625 12.66 10.0925 13.32 9.625 14 C5.66767967 17.0151012 1.80995855 16.33045517 -3 16 C-3 15.01 -3 14.02 -3 13 C-0.36 11.68 2.28 10.36 5 9 C1.7 8.01 -1.6 7.02 -5 6 C-1 4 -1 4 2 3 C1.34 2.01 0.68 1.02 0 0 Z " fill="#717171" transform="translate(78,187)"/>
<path d="M0 0 C0.33 0.66 0.66 1.32 1 2 C0.22265625 3.953125 0.22265625 3.953125 -0.9375 6.25 C-2.72545014 10.0524556 -3.31081473 12.75219871 -3 17 C-3.33 17.66 -3.66 18.32 -4 19 C-4.34335935 21.22462236 -4.65041977 23.45491737 -4.9375 25.6875 C-6.331561 35.68168728 -6.331561 35.68168728 -8 40 C-8.99 40.66 -9.98 41.32 -11 42 C-10.71125 40.85402344 -10.4225 39.70804688 -10.125 38.52734375 C-9.74957805 36.99749932 -9.37460171 35.46754549 -9 33.9375 C-8.80921875 33.18533203 -8.6184375 32.43316406 -8.421875 31.65820312 C-7.29759256 27.02053807 -6.66910208 22.81027528 -7 18 C-8.36323743 15.9600281 -8.36323743 15.9600281 -10 14 C-11.41937999 9.89126846 -12.26362146 6.34975401 -12 2 C-9.34324723 4.5651406 -7.23992538 7.01343283 -5 10 C-3.35 6.7 -1.7 3.4 0 0 Z " fill="#464646" transform="translate(239,195)"/>
<path d="M0 0 C2 2 2 2 2.15234375 3.84765625 C1.4415499 11.17529462 -1.25575336 18.11585446 -7 23 C-7.66 23 -8.32 23 -9 23 C-8.56615696 15.48005391 -6.47542107 6.87517608 -1.3359375 1.14453125 C-0.89507812 0.76683594 -0.45421875 0.38914063 0 0 Z " fill="#CECECE" transform="translate(244,188)"/>
<path d="M0 0 C-1.17115854 3.33329739 -2.11647596 5.86405627 -5 8 C-8.81151041 8.98991525 -12.38635695 9.10564443 -16.3125 9.0625 C-17.38113281 9.05347656 -18.44976562 9.04445313 -19.55078125 9.03515625 C-20.35902344 9.02355469 -21.16726562 9.01195312 -22 9 C-19.337473 6.1070037 -17.06740834 4.31728434 -13.4375 2.8125 C-12.29087891 2.32716797 -12.29087891 2.32716797 -11.12109375 1.83203125 C-7.19760228 0.29298211 -4.20555606 -0.0934568 0 0 Z " fill="#656463" transform="translate(244,262)"/>
<path d="M0 0 C0.33 0 0.66 0 1 0 C1.30751053 8.76405024 -0.20570115 16.0586187 -6.125 22.75 C-6.93324219 23.67039063 -6.93324219 23.67039063 -7.7578125 24.609375 C-8.16773438 25.06828125 -8.57765625 25.5271875 -9 26 C-10.42690031 23.14619937 -9.70828123 20.94318473 -9.01171875 17.9296875 C-6.82541015 11.59867805 -3.29227533 5.81124878 0 0 Z " fill="#93928E" transform="translate(249,202)"/>
<path d="M0 0 C1 2 1 2 1 4 C1.78375 3.505 2.5675 3.01 3.375 2.5 C6 1 6 1 8 1 C7.50945003 5.25143311 4.93054126 8.08513008 2 11 C-1.21008669 13.35843104 -4.43466046 15.25183352 -8 17 C-6.19389405 10.65660349 -3.74372266 5.43061745 0 0 Z " fill="#B5B5B5" transform="translate(120,231)"/>
<path d="M0 0 C2.74576271 4.11864407 2.74576271 4.11864407 3 7 C2.00664799 8.67063747 1.00568242 10.33675599 0 12 C-0.71923208 15.69523952 -0.71923208 15.69523952 -1 19 C-0.34 18.67 0.32 18.34 1 18 C-0.20358597 21.42559084 -1.35892646 23.53258609 -4 26 C-7.62870159 16.58997722 -7.62870159 16.58997722 -6 12 C-6.99 11.67 -7.98 11.34 -9 11 C-9 9.35 -9 7.7 -9 6 C-6.5 8.25 -6.5 8.25 -4 11 C-4 12.32 -4 13.64 -4 15 C-3.34 15 -2.68 15 -2 15 C-2.04125 13.824375 -2.0825 12.64875 -2.125 11.4375 C-2.13983635 7.27590326 -1.31170778 3.93512333 0 0 Z " fill="#8B8B8B" transform="translate(125,205)"/>
<path d="M0 0 C0.66 0.33 1.32 0.66 2 1 C1.34 1.66 0.68 2.32 0 3 C2.64 3.33 5.28 3.66 8 4 C3.09069157 9.33010629 -0.62886148 11.10570083 -7.8125 11.625 C-8.78832031 11.69976562 -9.76414063 11.77453125 -10.76953125 11.8515625 C-11.87361328 11.92503906 -11.87361328 11.92503906 -13 12 C-8.87675353 7.74790208 -4.48717034 3.86364295 0 0 Z " fill="#A2A2A2" transform="translate(213,276)"/>
<path d="M0 0 C0.99 0 1.98 0 3 0 C5.15083538 6.45250614 4.1500933 12.68410093 2 19 C-1 17 -1 17 -1.58203125 14.1015625 C-1.65808594 12.95429688 -1.73414062 11.80703125 -1.8125 10.625 C-1.90144531 9.48289063 -1.99039063 8.34078125 -2.08203125 7.1640625 C-2.00214313 4.08266345 -1.63291516 2.55970485 0 0 Z " fill="#D5D4D0" transform="translate(114,142)"/>
<path d="M0 0 C0.56317104 3.21812026 0.4751869 5.28102157 -1.34765625 8.0390625 C-4.836183 12.1332895 -8.36393192 15.28620405 -13 18 C-12.00288747 13.67917905 -5.51961449 0 0 0 Z " fill="#828282" transform="translate(234,249)"/>
<path d="M0 0 C0.66 0 1.32 0 2 0 C5.84505249 8.56038435 5.79511928 17.51511199 2.69140625 26.26953125 C2.46324219 26.84058594 2.23507813 27.41164062 2 28 C-0.51926901 23.12941325 -1.10395221 19.50946709 -1 14 C-0.67 14 -0.34 14 0 14 C0 15.98 0 17.96 0 20 C0.99 20 1.98 20 3 20 C3 15.71 3 11.42 3 7 C2.34 7 1.68 7 1 7 C1 8.65 1 10.3 1 12 C0.67 12 0.34 12 0 12 C0 8.04 0 4.08 0 0 Z " fill="#474644" transform="translate(124,149)"/>
<path d="M0 0 C0.66 0 1.32 0 2 0 C3.65433237 4.35662826 4.29627689 8.03146618 4.3125 12.6875 C4.32925781 13.80511719 4.34601563 14.92273438 4.36328125 16.07421875 C4 19 4 19 2.48046875 20.89453125 C1.99191406 21.25933594 1.50335938 21.62414062 1 22 C0.00137301 14.63512596 -0.10331031 7.42686315 0 0 Z " fill="#CCCCCC" transform="translate(206,207)"/>
<path d="M0 0 C1.60520004 0.06023265 3.20934327 0.14908599 4.8125 0.25 C6.15248047 0.31960937 6.15248047 0.31960937 7.51953125 0.390625 C10 1 10 1 11.82421875 3.046875 C12.40623047 4.01367188 12.40623047 4.01367188 13 5 C12 7 12 7 10.3125 7.75 C7.09235367 8.09812393 4.9470167 7.28131161 2 6 C0 3 0 3 0 0 Z " fill="#EEEEEE" transform="translate(68,185)"/>
<path d="M0 0 C0.99 0.33 1.98 0.66 3 1 C3.33 2.98 3.66 4.96 4 7 C4.66 7 5.32 7 6 7 C6 7.66 6 8.32 6 9 C6.66 9 7.32 9 8 9 C8.66 8.01 9.32 7.02 10 6 C10.66 8.97 11.32 11.94 12 15 C7.39294801 13.50948318 4.53603516 11.21457741 1 8 C-0.35439668 5.29120665 -0.06501451 2.99066732 0 0 Z " fill="#5E5E5E" transform="translate(183,214)"/>
<path d="M0 0 C3.057952 1.73559438 5.63379989 3.38472619 8 6 C7.67 6.66 7.34 7.32 7 8 C7 10.21029533 7.44817443 11.98667593 8 14.125 C8.185625 14.84945312 8.37125 15.57390625 8.5625 16.3203125 C8.706875 16.87460938 8.85125 17.42890625 9 18 C8.34 18 7.68 18 7 18 C7 17.34 7 16.68 7 16 C6.34 16 5.68 16 5 16 C4.34956281 14.27255984 3.70485156 12.5429631 3.0625 10.8125 C2.52302734 9.36810547 2.52302734 9.36810547 1.97265625 7.89453125 C1.08843438 5.2631722 0.47431414 2.73105092 0 0 Z " fill="#707070" transform="translate(84,165)"/>
<path d="M0 0 C4.66666667 2.33333333 4.66666667 2.33333333 6.125 5.25 C7.05190346 8.16312517 7.40487222 10.76739907 7.625 13.8125 C7.69976562 14.78832031 7.77453125 15.76414063 7.8515625 16.76953125 C7.92503906 17.87361328 7.92503906 17.87361328 8 19 C3.47013836 15.16704015 2.50383375 12.84447154 2 7 C1.41880436 4.63370345 0.71366158 2.33129449 0 0 Z " fill="#D3D3D3" transform="translate(89,171)"/>
<path d="M0 0 C3 1 3 1 4 3 C4.66 2.01 5.32 1.02 6 0 C6 0.66 6 1.32 6 2 C6.66 2 7.32 2 8 2 C8 3.65 8 5.3 8 7 C7.01 6.67 6.02 6.34 5 6 C5.33 7.65 5.66 9.3 6 11 C5.34 11 4.68 11 4 11 C3.67 10.67 3.34 10.34 3 10 C2.67 10.99 2.34 11.98 2 13 C0.71553081 10.43106162 0.67022856 8.23423663 0.4375 5.375 C0.35371094 4.37210938 0.26992187 3.36921875 0.18359375 2.3359375 C0.12300781 1.56507813 0.06242188 0.79421875 0 0 Z " fill="#8D8D8D" transform="translate(199,218)"/>
<path d="M0 0 C0.66 0 1.32 0 2 0 C1.95875 1.03125 1.9175 2.0625 1.875 3.125 C1.81753222 8.46950332 2.92590595 13.60072139 3.953125 18.828125 C4 22 4 22 2.046875 24.421875 C1.37140625 24.94265625 0.6959375 25.4634375 0 26 C0.01160156 24.92621094 0.02320313 23.85242188 0.03515625 22.74609375 C0.04454315 21.30989759 0.05364238 19.87369952 0.0625 18.4375 C0.07087891 17.73302734 0.07925781 17.02855469 0.08789062 16.30273438 C0.10395272 12.81725871 -0.05523166 9.62556743 -0.56640625 6.16015625 C-1 3 -1 3 0 0 Z " fill="#7B7B7B" transform="translate(205,239)"/>
<path d="M0 0 C0.33 0 0.66 0 1 0 C1 3.33333333 1 6.66666667 1 10 C1.66 10.66 2.32 11.32 3 12 C0.69 13.32 -1.62 14.64 -4 16 C-4 13.03 -4 10.06 -4 7 C-3.01 7.495 -3.01 7.495 -2 8 C-1.34 5.36 -0.68 2.72 0 0 Z " fill="#5B5B5B" transform="translate(219,260)"/>
<path d="M0 0 C3.06436352 2.75792717 4.92233707 4.98325636 6 9 C5.625 11.8125 5.625 11.8125 5 14 C4.34 14 3.68 14 3 14 C-0.44419134 4.58997722 -0.44419134 4.58997722 0 0 Z " fill="#8F8F8F" transform="translate(227,197)"/>
<path d="M0 0 C2.31 0.33 4.62 0.66 7 1 C6.67 2.65 6.34 4.3 6 6 C4.02 6 2.04 6 0 6 C0 4.02 0 2.04 0 0 Z " fill="#E1E1E1" transform="translate(304,350)"/>
<path d="M0 0 C1.75 0.125 1.75 0.125 4 1 C8 6.22222222 8 6.22222222 8 9 C4.21304827 8.4590069 2.37254028 6.96567536 0 4 C0 2.68 0 1.36 0 0 Z " fill="#BCBCBC" transform="translate(88,187)"/>
<path d="M0 0 C0.66 0 1.32 0 2 0 C2.21192221 5.19209404 1.5912689 9.126739 0 14 C-2.09972674 10.58794404 -2.33083127 7.9699753 -2 4 C-1 1.625 -1 1.625 0 0 Z " fill="#BDBDBD" transform="translate(217,257)"/>
<path d="M0 0 C0.66 0 1.32 0 2 0 C2 4.29 2 8.58 2 13 C1.01 13 0.02 13 -1 13 C-1.33 10.36 -1.66 7.72 -2 5 C-1.34 5 -0.68 5 0 5 C0 3.35 0 1.7 0 0 Z " fill="#C6C4BF" transform="translate(125,156)"/>
<path d="M0 0 C2.84848485 4.27272727 2.84848485 4.27272727 3 7 C1.85491235 9.49446324 0.47763969 11.67159807 -1 14 C-1.33 14 -1.66 14 -2 14 C-2.21192221 8.80790596 -1.5912689 4.873261 0 0 Z " fill="#5D5C5A" transform="translate(125,205)"/>
<path d="M0 0 C0.33 0.66 0.66 1.32 1 2 C0.22265625 3.953125 0.22265625 3.953125 -0.9375 6.25 C-2.73961937 10.06950897 -3.20762355 12.74371718 -3 17 C-3.66 17.66 -4.32 18.32 -5 19 C-5.33 18.34 -5.66 17.68 -6 17 C-6.66 16.67 -7.32 16.34 -8 16 C-7.625 13.5625 -7.625 13.5625 -7 11 C-6.34 10.67 -5.68 10.34 -5 10 C-4.06606559 8.344389 -3.19897217 6.65049478 -2.375 4.9375 C-1.92898437 4.01839844 -1.48296875 3.09929687 -1.0234375 2.15234375 C-0.68570313 1.44207031 -0.34796875 0.73179687 0 0 Z " fill="#626262" transform="translate(239,195)"/>
<path d="M0 0 C-1.98 0.99 -1.98 0.99 -4 2 C-2.35 1.67 -0.7 1.34 1 1 C0.01 2.485 0.01 2.485 -1 4 C-3.6015625 4.29296875 -3.6015625 4.29296875 -6.625 4.1875 C-8.12933594 4.14689453 -8.12933594 4.14689453 -9.6640625 4.10546875 C-10.82035156 4.05326172 -10.82035156 4.05326172 -12 4 C-8.56269725 0.27625536 -5.01653969 -1.6721799 0 0 Z " fill="#F1F1F0" transform="translate(239,265)"/>
<path d="M0 0 C5.875 0.875 5.875 0.875 7 2 C7.04080783 3.99958364 7.04254356 6.00045254 7 8 C6.01 7.67 5.02 7.34 4 7 C4 6.34 4 5.68 4 5 C3.34 5 2.68 5 2 5 C1.34 3.35 0.68 1.7 0 0 Z " fill="#E3E3E3" transform="translate(185,216)"/>
<path d="M0 0 C3.29148243 1.13499394 3.9959869 1.99283376 5.75 5.125 C6.1625 6.07375 6.575 7.0225 7 8 C5.37419034 7.88601335 3.74932843 7.75844341 2.125 7.625 C1.22007813 7.55539063 0.31515625 7.48578125 -0.6171875 7.4140625 C-3 7 -3 7 -5 5 C-1.535 4.505 -1.535 4.505 2 4 C1.34 2.68 0.68 1.36 0 0 Z " fill="#606060" transform="translate(78,187)"/>
<path d="M0 0 C0.66 0.66 1.32 1.32 2 2 C1.9765625 4.1640625 1.9765625 4.1640625 1.625 6.625 C1.51414063 7.44226563 1.40328125 8.25953125 1.2890625 9.1015625 C1.19367188 9.72804687 1.09828125 10.35453125 1 11 C-2.875 7.25 -2.875 7.25 -4 5 C-2.68 3.35 -1.36 1.7 0 0 Z " fill="#818181" transform="translate(244,188)"/>
<path d="M0 0 C1 2 1 2 1 5 C-0.2421875 6.97265625 -0.2421875 6.97265625 -1.875 9.0625 C-2.40867187 9.75472656 -2.94234375 10.44695312 -3.4921875 11.16015625 C-5 13 -5 13 -7 15 C-6.42176904 10.93774452 -5.10882263 8.15237654 -2.9375 4.6875 C-2.38964844 3.80449219 -1.84179688 2.92148438 -1.27734375 2.01171875 C-0.64505859 1.01591797 -0.64505859 1.01591797 0 0 Z " fill="#4B4B4B" transform="translate(120,231)"/>
<path d="M0 0 C0.33 0.66 0.66 1.32 1 2 C1.99 2.33 2.98 2.66 4 3 C1.36 5.31 -1.28 7.62 -4 10 C-4.33 9.34 -4.66 8.68 -5 8 C-4.00390625 6.0546875 -4.00390625 6.0546875 -2.5625 3.875 C-2.08941406 3.15054687 -1.61632812 2.42609375 -1.12890625 1.6796875 C-0.75636719 1.12539063 -0.38382813 0.57109375 0 0 Z " fill="#595959" transform="translate(226,257)"/>
<path d="M0 0 C1.21816406 0.03480469 1.21816406 0.03480469 2.4609375 0.0703125 C3.68683594 0.09738281 3.68683594 0.09738281 4.9375 0.125 C5.87722656 0.15980469 5.87722656 0.15980469 6.8359375 0.1953125 C6.8359375 0.5253125 6.8359375 0.8553125 6.8359375 1.1953125 C5.1859375 1.5253125 3.5359375 1.8553125 1.8359375 2.1953125 C2.1659375 2.8553125 2.4959375 3.5153125 2.8359375 4.1953125 C5.86528241 4.85303678 5.86528241 4.85303678 8.8359375 5.1953125 C8.8359375 5.5253125 8.8359375 5.8553125 8.8359375 6.1953125 C3.11935414 6.65263917 0.34944497 5.71805004 -4.1640625 2.1953125 C-2.1640625 0.1953125 -2.1640625 0.1953125 0 0 Z " fill="#585858" transform="translate(186.1640625,229.8046875)"/>
<path d="M0 0 C0.66 1.32 1.32 2.64 2 4 C-0.64 6.97 -3.28 9.94 -6 13 C-7.33332095 10.3333581 -6.67102033 8.83319697 -6 6 C-5.01 6 -4.02 6 -3 6 C-2.01 4.02 -1.02 2.04 0 0 Z " fill="#424240" transform="translate(246,215)"/>
<path d="M0 0 C0.99 0.33 1.98 0.66 3 1 C3.33 2.98 3.66 4.96 4 7 C4.66 7 5.32 7 6 7 C6 7.66 6 8.32 6 9 C6.66 9.33 7.32 9.66 8 10 C4.87099787 10 3.62581138 9.57548683 1 8 C-0.35439668 5.29120665 -0.06501451 2.99066732 0 0 Z " fill="#9B9B9B" transform="translate(183,214)"/>
<path d="M0 0 C0 0.99 0 1.98 0 3 C-2.64 3.66 -5.28 4.32 -8 5 C-7.67 4.34 -7.34 3.68 -7 3 C-8.98 3.33 -10.96 3.66 -13 4 C-12 2 -12 2 -10.0390625 1.11328125 C-9.24242187 0.84902344 -8.44578125 0.58476562 -7.625 0.3125 C-6.83351562 0.04050781 -6.04203125 -0.23148437 -5.2265625 -0.51171875 C-3 -1 -3 -1 0 0 Z " fill="#8C8B8B" transform="translate(241,263)"/>
<path d="M0 0 C0.99 0.33 1.98 0.66 3 1 C2.34 1.66 1.68 2.32 1 3 C5.64586892 2.51515724 5.64586892 2.51515724 10 1 C9 4 9 4 7 5 C5.29297265 5.06996014 3.58331997 5.08440154 1.875 5.0625 C0.96492188 5.05347656 0.05484375 5.04445312 -0.8828125 5.03515625 C-1.58148438 5.02355469 -2.28015625 5.01195312 -3 5 C-3 4.01 -3 3.02 -3 2 C-2.01 1.34 -1.02 0.68 0 0 Z " fill="#5F5F5F" transform="translate(78,198)"/>
<path d="M0 0 C3.3 0.33 6.6 0.66 10 1 C10 1.33 10 1.66 10 2 C7.69 2 5.38 2 3 2 C3.99 2.99 4.98 3.98 6 5 C5.67 5.66 5.34 6.32 5 7 C3.0625 6.3125 3.0625 6.3125 1 5 C0.25 2.375 0.25 2.375 0 0 Z " fill="#919191" transform="translate(68,185)"/>
<path d="M0 0 C3.82946843 1.45255699 5.12050295 3.42895561 7 7 C6.34 7.66 5.68 8.32 5 9 C0 3.375 0 3.375 0 0 Z " fill="#AEAEAE" transform="translate(105,156)"/>
<path d="M0 0 C0.66 0 1.32 0 2 0 C2.66 2.31 3.32 4.62 4 7 C3.01 7 2.02 7 1 7 C1 8.65 1 10.3 1 12 C0.67 12 0.34 12 0 12 C0 8.04 0 4.08 0 0 Z " fill="#757370" transform="translate(124,149)"/>
<path d="M0 0 C0.66 0 1.32 0 2 0 C3.4783226 2.95664519 3.06032783 5.74229737 3 9 C2.01 9.495 2.01 9.495 1 10 C-0.60725635 6.78548731 -0.05748185 3.56387464 0 0 Z " fill="#EBE9E2" transform="translate(122,171)"/>
<path d="M0 0 C-1.61594832 2.04119788 -3.2856382 4.04072937 -5 6 C-5.66 6 -6.32 6 -7 6 C-6.67 4.02 -6.34 2.04 -6 0 C-2.25 -1.125 -2.25 -1.125 0 0 Z " fill="#D1CFC9" transform="translate(201,289)"/>
<path d="M0 0 C-0.56371414 3.26954202 -1.49962266 4.82575883 -4 7 C-4.99 5.68 -5.98 4.36 -7 3 C-2.25 0 -2.25 0 0 0 Z " fill="#7B7976" transform="translate(128,232)"/>
<path d="M0 0 C0.66 0.33 1.32 0.66 2 1 C2.625 4.0625 2.625 4.0625 3 7 C1.35 7 -0.3 7 -2 7 C-1.34 4.69 -0.68 2.38 0 0 Z " fill="#B0B0B0" transform="translate(278,351)"/>
<path d="M0 0 C1.10408203 0.35384766 1.10408203 0.35384766 2.23046875 0.71484375 C-6.76953125 6.71484375 -6.76953125 6.71484375 -10.76953125 6.71484375 C-9.55801583 5.50934081 -8.32450236 4.32591628 -7.08203125 3.15234375 C-6.39753906 2.49105469 -5.71304688 1.82976562 -5.0078125 1.1484375 C-2.76953125 -0.28515625 -2.76953125 -0.28515625 0 0 Z " fill="#494949" transform="translate(210.76953125,280.28515625)"/>
<path d="M0 0 C0.99 0.33 1.98 0.66 3 1 C2.67 2.32 2.34 3.64 2 5 C0.35 5.33 -1.3 5.66 -3 6 C-1.125 1.125 -1.125 1.125 0 0 Z " fill="#C3C2C0" transform="translate(121,236)"/>
<path d="M0 0 C0.66 0.66 1.32 1.32 2 2 C2.66 1.67 3.32 1.34 4 1 C2.8141763 4.37503669 1.72426311 6.64722731 -1 9 C-1.80967438 6.08517222 -2.21845993 4.53886783 -1.0625 1.6875 C-0.711875 1.130625 -0.36125 0.57375 0 0 Z " fill="#474644" transform="translate(122,222)"/>
<path d="M0 0 C0.99 0 1.98 0 3 0 C3 1.65 3 3.3 3 5 C1.02 5.66 -0.96 6.32 -3 7 C-1.125 1.125 -1.125 1.125 0 0 Z " fill="#ECECEC" transform="translate(241,194)"/>
<path d="M0 0 C0.99 0.33 1.98 0.66 3 1 C5.14255793 0.61067144 5.14255793 0.61067144 7 0 C5.4375 2.0625 5.4375 2.0625 3 4 C-0.75 3.75 -0.75 3.75 -4 3 C-2.1875 1.4375 -2.1875 1.4375 0 0 Z " fill="#EBEBEB" transform="translate(81,198)"/>
<path d="M0 0 C0.99 0.33 1.98 0.66 3 1 C3.33 1.99 3.66 2.98 4 4 C3.34 4 2.68 4 2 4 C2.33 6.97 2.66 9.94 3 13 C0.41073669 10.41073669 0.62601957 8.97294721 0.375 5.375 C0.30023438 4.37210938 0.22546875 3.36921875 0.1484375 2.3359375 C0.09945312 1.56507813 0.05046875 0.79421875 0 0 Z " fill="#757575" transform="translate(199,218)"/>
<path d="M0 0 C0.66 0 1.32 0 2 0 C2.99 3.63 3.98 7.26 5 11 C0.68393782 8.00518135 0.68393782 8.00518135 -1 6 C-0.875 2.6875 -0.875 2.6875 0 0 Z " fill="#707070" transform="translate(98,198)"/>
<path d="M0 0 C0.66 0.66 1.32 1.32 2 2 C1.625 4.625 1.625 4.625 1 7 C0.34 7 -0.32 7 -1 7 C-1.33 5.02 -1.66 3.04 -2 1 C-1.34 0.67 -0.68 0.34 0 0 Z " fill="#D3D3D3" transform="translate(118,215)"/>
<path d="M0 0 C2.18975773 3.28463659 2.99806563 6.20696275 4 10 C3.01 10 2.02 10 1 10 C0.67 6.7 0.34 3.4 0 0 Z " fill="#EBEBEB" transform="translate(201,223)"/>
<path d="M0 0 C3.37503669 1.1858237 5.64722731 2.27573689 8 5 C7.67 5.66 7.34 6.32 7 7 C6.38125 6.2884375 6.38125 6.2884375 5.75 5.5625 C3.817815 3.83733482 2.51807725 3.43415125 0 3 C0 2.01 0 1.02 0 0 Z " fill="#737373" transform="translate(103,153)"/>
<path d="M0 0 C2 4 2 4 1.25 6.6875 C0 9 0 9 -2 10 C-1.34 6.7 -0.68 3.4 0 0 Z " fill="#5E5E5E" transform="translate(207,255)"/>
<path d="M0 0 C0.66 0 1.32 0 2 0 C1.34 2.31 0.68 4.62 0 7 C-0.99 7 -1.98 7 -3 7 C-1.125 2.25 -1.125 2.25 0 0 Z " fill="#93918D" transform="translate(247,206)"/>
<path d="M0 0 C0.33 0.66 0.66 1.32 1 2 C1.99 1.67 2.98 1.34 4 1 C3.42655063 3.86724686 3.1385485 4.8614515 1 7 C1 6.01 1 5.02 1 4 C0.34 4 -0.32 4 -1 4 C-0.67 2.68 -0.34 1.36 0 0 Z " fill="#979797" transform="translate(240,198)"/>
<path d="M0 0 C0.99 0.33 1.98 0.66 3 1 C3.33 2.65 3.66 4.3 4 6 C2.68 5.67 1.36 5.34 0 5 C-0.5625 3.0625 -0.5625 3.0625 -1 1 C-0.67 0.67 -0.34 0.34 0 0 Z " fill="#454545" transform="translate(111,160)"/>
</svg>
